HIERARCHY
ROOT Hips
{
	OFFSET 0.00000 0.00000 0.00000
	CHANNELS 6 Xposition Yposition Zposition Zrotation Yrotation Xrotation 
	JOINT LHipJoint
	{
		OFFSET 0 0 0
		CHANNELS 3 Zrotation Yrotation Xrotation
		JOINT LeftUpLeg
		{
			OFFSET 1.57338 -1.94743 0.52196
			CHANNELS 3 Zrotation Yrotation Xrotation
			JOINT LeftLeg
			{
				OFFSET 2.60333 -7.15259 0.00000
				CHANNELS 3 Zrotation Yrotation Xrotation
				JOINT LeftFoot
				{
					OFFSET 2.77855 -7.63400 0.00000
					CHANNELS 3 Zrotation Yrotation Xrotation
					JOINT LeftToeBase
					{
						OFFSET 0.19847 -0.54529 2.28466
						CHANNELS 3 Zrotation Yrotation Xrotation
						End Site
						{
							OFFSET 0.00000 -0.00000 1.17993
						}
					}
				}
			}
		}
	}
	JOINT RHipJoint
	{
		OFFSET 0 0 0
		CHANNELS 3 Zrotation Yrotation Xrotation
		JOINT RightUpLeg
		{
			OFFSET -1.61527 -1.94743 0.52196
			CHANNELS 3 Zrotation Yrotation Xrotation
			JOINT RightLeg
			{
				OFFSET -2.53829 -6.97390 0.00000
				CHANNELS 3 Zrotation Yrotation Xrotation
				JOINT RightFoot
				{
					OFFSET -2.80762 -7.71387 0.00000
					CHANNELS 3 Zrotation Yrotation Xrotation
					JOINT RightToeBase
					{
						OFFSET -0.30536 -0.83898 2.28801
						CHANNELS 3 Zrotation Yrotation Xrotation
						End Site
						{
							OFFSET -0.00000 -0.00000 1.21323
						}
					}
				}
			}
		}
	}
	JOINT LowerBack
	{
		OFFSET 0 0 0
		CHANNELS 3 Zrotation Yrotation Xrotation
		JOINT Spine
		{
			OFFSET -0.04381 1.99497 -0.19778
			CHANNELS 3 Zrotation Yrotation Xrotation
			JOINT Spine1
			{
				OFFSET -0.01959 2.01295 -0.04372
				CHANNELS 3 Zrotation Yrotation Xrotation
				JOINT Neck
				{
					OFFSET 0 0 0
					CHANNELS 3 Zrotation Yrotation Xrotation
					JOINT Neck1
					{
						OFFSET -0.05459 1.76913 0.09708
						CHANNELS 3 Zrotation Yrotation Xrotation
						JOINT Head
						{
							OFFSET 0.09461 1.77368 -0.11172
							CHANNELS 3 Zrotation Yrotation Xrotation
							End Site
							{
								OFFSET 0.03812 1.78157 -0.04834
							}
						}
					}
				}
				JOINT LeftShoulder
				{
					OFFSET 0 0 0
					CHANNELS 3 Zrotation Yrotation Xrotation
					JOINT LeftArm
					{
						OFFSET 3.50922 1.24034 -0.28866
						CHANNELS 3 Zrotation Yrotation Xrotation
						JOINT LeftForeArm
						{
							OFFSET 5.40188 -0.00000 0.00000
							CHANNELS 3 Zrotation Yrotation Xrotation
							JOINT LeftHand
							{
								OFFSET 3.68559 -0.00000 0.00000
								CHANNELS 3 Zrotation Yrotation Xrotation
								JOINT LeftFingerBase
								{
									OFFSET 0 0 0
									CHANNELS 3 Zrotation Yrotation Xrotation
									JOINT LeftHandIndex1
									{
										OFFSET 0.61753 -0.00000 0.00000
										CHANNELS 3 Zrotation Yrotation Xrotation
										End Site
										{
											OFFSET 0.49787 -0.00000 0.00000
										}
									}
								}
								JOINT LThumb
								{
									OFFSET 0 0 0
									CHANNELS 3 Zrotation Yrotation Xrotation
									End Site
									{
										OFFSET 0.50547 -0.00000 0.50547
									}
								}
							}
						}
					}
				}
				JOINT RightShoulder
				{
					OFFSET 0 0 0
					CHANNELS 3 Zrotation Yrotation Xrotation
					JOINT RightArm
					{
						OFFSET -2.95373 1.39649 -0.27346
						CHANNELS 3 Zrotation Yrotation Xrotation
						JOINT RightForeArm
						{
							OFFSET -6.10670 -0.00000 -0.00000
							CHANNELS 3 Zrotation Yrotation Xrotation
							JOINT RightHand
							{
								OFFSET -3.63052 -0.00000 0.00000
								CHANNELS 3 Zrotation Yrotation Xrotation
								JOINT RightFingerBase
								{
									OFFSET 0 0 0
									CHANNELS 3 Zrotation Yrotation Xrotation
									JOINT RightHandIndex1
									{
										OFFSET -0.58385 -0.00000 0.00000
										CHANNELS 3 Zrotation Yrotation Xrotation
										End Site
										{
											OFFSET -0.47071 -0.00000 0.00000
										}
									}
								}
								JOINT RThumb
								{
									OFFSET 0 0 0
									CHANNELS 3 Zrotation Yrotation Xrotation
									End Site
									{
										OFFSET -0.47790 -0.00000 0.47790
									}
								}
							}
						}
					}
				}
			}
		}
	}
}
MOTION
Frames: 9
Frame Time: 0.0333333
2.1308 26.9143 1.8767 163.5120 -17.9296 -172.2490 0.0000 0.0000 0.0000 -29.6871 -8.4925 -18.2644 1.9864 8.8376 25.2887 0.5571 10.7728 14.2920 0.1824 -2.7508 -7.5857 0.0000 0.0000 0.0000 -0.5635 21.3366 -42.8136 -13.1289 -18.8282 69.5253 -2.0412 4.1584 -26.0385 -0.2101 -2.9509 8.1421 -2.6561 -0.8432 26.4373 -1.7755 -3.2785 6.7708 0.6741 -2.0946 -7.0900 -9.1791 0.2002 -10.8382 4.5003 0.1260 23.1757 3.0536 -0.6065 9.0160 -0.0000 -0.0000 0.0000 -29.1513 -63.8653 1.0870 64.1822 -57.3251 -37.8419 -0.0000 0.0000 -46.0756 24.7189 32.2766 13.8111 -7.1250 0.0000 -0.0000 -9.3423 64.5604 -4.4419 -0.0000 -0.0000 0.0000 57.6343 42.0492 16.1681 -124.4836 54.9917 -89.3615 0.0000 -0.0000 -9.6487 -37.7540 -12.4006 9.4417 7.1250 -0.0000 -0.0000 -9.8603 -45.2877 0.0707
2.0643 26.7446 2.0197 163.9920 -17.1986 -172.7880 0.0000 0.0000 0.0000 -29.1643 -9.1672 -18.1804 1.9862 8.8372 25.2875 0.6857 10.2771 15.4027 0.2036 -2.9052 -8.0149 0.0000 0.0000 0.0000 -0.5922 20.6309 -44.4600 -13.6470 -19.0035 71.1235 -2.0661 5.2401 -26.0425 -0.2511 -3.2243 8.9039 -2.6322 -0.9092 26.8235 -1.6176 -3.3684 6.6702 0.8824 -2.1334 -7.3826 -9.3366 0.5091 -10.7322 4.4453 0.5908 23.1065 3.1068 -0.4110 8.9365 0.0000 -0.0000 0.0000 -26.6463 -63.7835 -1.8022 62.4649 -56.9318 -36.3996 -0.0000 0.0000 -46.3477 23.1416 30.6145 12.2792 -7.1250 0.0000 -0.0000 -10.0687 62.4658 -4.2970 0.0000 -0.0000 0.0000 56.2041 44.0403 15.6397 -122.3737 55.6435 -87.6264 0.0000 -0.0000 -11.0776 -37.5858 -12.5451 9.4914 7.1250 -0.0000 -0.0000 -9.7063 -45.4387 0.1061
1.9856 26.5743 2.1616 164.2040 -16.3764 -173.2340 0.0000 0.0000 0.0000 -29.0704 -10.0173 -17.9238 1.9931 8.8518 25.3327 0.7478 10.4948 16.0333 0.1466 -2.4678 -6.8004 0.0000 0.0000 0.0000 -0.8954 19.5887 -46.2636 -14.1787 -19.1673 72.7494 -2.0577 6.3278 -25.8680 -0.2250 -3.0536 8.4281 -2.5925 -0.9146 27.2686 -1.6300 -3.3992 6.5722 0.8792 -2.1458 -7.7150 -9.4575 0.6056 -10.8327 4.2589 0.8371 22.8515 3.0851 -0.3096 8.8519 -0.0000 0.0000 0.0000 -24.0509 -63.9567 -4.6352 60.8124 -56.5225 -35.0179 -0.0000 0.0000 -47.1502 25.0579 31.9558 13.8988 -7.1250 0.0000 -0.0000 -8.6988 64.3306 -4.0872 -0.0000 0.0000 0.0000 54.8643 45.9906 14.8133 -120.3063 56.2278 -85.9136 0.0000 -0.0000 -12.2259 -37.5987 -12.6220 9.5519 7.1250 -0.0000 -0.0000 -9.7225 -45.5333 0.1292
1.8984 26.3770 2.3025 164.0560 -14.4761 -173.4670 0.0000 0.0000 0.0000 -29.6180 -9.7605 -18.2194 1.9696 8.8025 25.1794 0.8787 9.4571 17.0085 0.2759 -3.3787 -9.3348 0.0000 0.0000 0.0000 -1.7309 19.3249 -48.5626 -14.7919 -19.3368 74.6089 -2.0247 7.3237 -25.5796 -0.4271 -4.1942 11.6237 -3.2713 -0.3599 27.4396 -1.7644 -2.8945 6.3815 0.9658 -1.8876 -8.0042 -9.2888 0.7708 -10.3039 3.9805 1.0905 22.1168 2.9692 -0.1756 8.4887 -0.0000 0.0000 0.0000 -21.7777 -64.2292 -7.1429 59.4567 -56.1634 -33.8895 -0.0000 0.0000 -48.0177 25.4176 32.3229 14.2566 -7.1250 0.0000 -0.0000 -8.5187 64.8015 -4.0952 -0.0000 0.0000 0.0000 53.6244 48.2925 14.0281 -116.9462 57.0702 -83.1066 0.0000 -0.0000 -13.2912 -37.8580 -12.0674 9.2302 7.1250 -0.0000 -0.0000 -9.9410 -44.8966 -0.0256
1.7835 26.2167 2.4474 164.3740 -13.5503 -174.0620 0.0000 0.0000 0.0000 -29.8833 -9.2935 -17.8384 1.8402 8.5250 24.3204 0.8470 9.3680 16.7095 0.2790 -3.3971 -9.3862 0.0000 0.0000 0.0000 -1.7759 18.2540 -50.2991 -15.3619 -19.4762 76.3244 -2.0562 7.6914 -25.7671 -0.3857 -3.9881 11.0432 -2.7680 -0.3159 27.7862 -1.8170 -2.7729 6.5556 0.5893 -1.8641 -8.0088 -8.7798 0.7180 -11.1581 3.3021 1.1919 22.2417 2.6748 -0.1418 8.6959 0.0000 -0.0000 0.0000 -18.3110 -64.6449 -10.9626 57.8310 -55.7037 -32.5427 -0.0000 0.0000 -47.9931 24.5267 32.3650 13.7261 -7.1250 0.0000 -0.0000 -9.6417 64.5959 -4.5935 0.0000 -0.0000 0.0000 51.6221 50.4671 12.1946 -114.5985 57.5854 -81.1302 0.0000 -0.0000 -14.3040 -37.3885 -12.8134 9.6196 7.1250 -0.0000 -0.0000 -9.5288 -45.7339 0.1742
1.6522 26.0323 2.5829 164.4410 -12.7232 -174.8720 0.0000 0.0000 0.0000 -30.5850 -8.5945 -17.1714 1.7274 8.2737 23.5484 0.6075 11.0344 14.8640 0.1889 -2.7990 -7.7196 0.0000 0.0000 0.0000 -2.0940 17.0657 -51.7240 -15.9429 -19.6007 78.0615 -2.0361 8.6565 -25.6117 -0.4364 -4.2390 11.7502 -2.3629 -0.1473 28.6664 -1.8226 -2.5484 6.6907 0.3023 -1.7903 -8.3104 -8.5585 0.6133 -11.7825 3.0123 1.1674 22.2292 2.5435 -0.1487 8.8154 0.0000 0.0000 0.0000 -15.0544 -65.1439 -14.3051 56.4115 -55.2753 -31.3729 -0.0000 0.0000 -48.5371 24.9838 33.6745 14.4864 -7.1250 0.0000 -0.0000 -10.0996 66.0347 -5.1497 0.0000 0.0000 0.0000 48.6464 51.7698 9.4958 -113.0292 57.8980 -79.8031 0.0000 -0.0000 -15.4077 -36.5521 -13.5709 9.8685 7.1250 -0.0000 -0.0000 -8.7428 -46.5157 0.3295
1.5136 25.8485 2.7260 164.5590 -11.8420 -175.6470 0.0000 0.0000 0.0000 -31.1439 -8.2097 -16.5633 1.6078 7.9964 22.7031 0.5068 11.8061 14.1435 0.2803 -3.4051 -9.4087 0.0000 0.0000 0.0000 -2.5474 16.0203 -53.3186 -16.5246 -19.7079 79.7908 -1.9457 9.9403 -25.0460 -0.4490 -4.2990 11.9194 -2.2262 0.1586 29.6388 -1.5100 -2.1906 6.8132 0.4758 -1.6477 -8.6417 -8.5955 0.3909 -11.9310 2.5076 1.0478 21.6856 2.3601 -0.2267 8.6741 0.0000 0.0000 0.0000 -11.8001 -65.4196 -17.6970 54.9266 -54.7990 -30.1560 -0.0000 0.0000 -49.4752 24.9614 33.9244 14.5628 -7.1250 0.0000 -0.0000 -10.3362 66.2770 -5.3290 0.0000 0.0000 0.0000 44.6041 53.3648 6.0744 -110.6546 58.3250 -77.7868 0.0000 -0.0000 -16.4949 -36.3255 -13.0455 9.4233 7.1250 -0.0000 -0.0000 -8.5098 -45.8487 0.1796
1.3711 25.6725 2.8707 164.9610 -10.7190 -176.1430 0.0000 0.0000 0.0000 -31.2101 -8.9905 -16.3483 1.5634 7.8903 22.3814 0.4289 12.7112 13.7344 0.2539 -3.2423 -8.9540 0.0000 0.0000 0.0000 -2.9095 15.5206 -55.1255 -17.0584 -19.7913 81.3706 -1.8354 11.4017 -24.4286 -0.4360 -4.2371 11.7446 -1.8025 0.4894 30.3776 -1.3026 -1.6698 6.7825 0.2951 -1.4163 -9.0442 -8.4532 0.2205 -12.2112 2.4890 0.8328 21.6337 2.3096 -0.3077 8.7221 0.0000 0.0000 0.0000 -8.5706 -65.7196 -20.6428 53.5442 -54.3286 -29.0297 -0.0000 0.0000 -50.2874 25.2707 33.9556 14.7713 -7.1250 0.0000 -0.0000 -9.9725 66.3982 -5.1676 0.0000 0.0000 0.0000 41.0886 54.3499 2.7081 -109.1270 58.5715 -76.4850 0.0000 -0.0000 -17.3458 -35.8414 -13.1650 9.3422 7.1250 -0.0000 -0.0000 -8.0448 -45.9180 0.1835
1.2171 25.4770 3.0105 165.7640 -9.4497 -176.6590 0.0000 0.0000 0.0000 -30.9218 -9.6646 -16.5949 1.6153 8.0139 22.7565 0.4421 13.3667 14.1440 0.2648 -3.3105 -9.1445 0.0000 0.0000 0.0000 -2.8148 15.3140 -56.8814 -17.5823 -19.8593 82.9151 -1.7362 12.8148 -23.9564 -0.4493 -4.3006 11.9238 -1.2892 0.7455 30.9092 -0.9018 -1.1453 6.6246 0.2676 -1.1707 -9.4829 -8.5575 0.1956 -11.7529 2.3763 0.7723 21.5409 2.2767 -0.3652 8.6108 0.0000 0.0000 0.0000 -5.9136 -65.7366 -23.2793 52.0592 -53.7930 -27.8273 -0.0000 0.0000 -51.1219 25.4170 34.3761 15.0192 -7.1250 0.0000 -0.0000 -10.1465 66.8597 -5.3658 0.0000 0.0000 0.0000 38.1987 55.6468 -0.0410 -106.4561 58.9516 -74.2012 0.0000 -0.0000 -17.9360 -34.5312 -13.3004 8.9952 7.1250 -0.0000 -0.0000 -6.7834 -45.8799 0.1480
